<?xml version="1.0" encoding="UTF-8" standalone="no"?>
<svg width="89px" height="59px" viewBox="0 0 89 59" version="1.1" xmlns="http://www.w3.org/2000/svg" xmlns:xlink="http://www.w3.org/1999/xlink" xmlns:sketch="http://www.bohemiancoding.com/sketch/ns">
    <!-- Generator: Sketch 3.2.2 (9983) - http://www.bohemiancoding.com/sketch -->
    <title>Group</title>
    <desc>Created with Sketch.</desc>
    <defs></defs>
    <g id="Page-1" stroke="none" stroke-width="1" fill="none" fill-rule="evenodd" sketch:type="MSPage">
        <g id="t" sketch:type="MSArtboardGroup">
            <g id="Group" sketch:type="MSLayerGroup">
                <path d="M5,4.26325641e-14 L5,27.9018587 C5,31.2697691 7.74011781,34 11.1065945,34 L53.3954888,34 C56.7680678,34 59.5020833,31.2726301 59.5020833,27.8923371 L59.5020833,1.01492532" id="Path-9" stroke="#FF6666" stroke-width="3" stroke-linecap="round" stroke-linejoin="round" sketch:type="MSShapeGroup"></path>
                <path d="M10.5917969,56.0991211 C10.0992814,56.8351274 9.49471387,57.3760562 8.77807617,57.7219238 C8.06143847,58.0677914 7.18018101,58.2407227 6.13427734,58.2407227 C2.57599132,58.2407227 0.796875,56.2457882 0.796875,52.2558594 C0.796875,50.213857 1.2478796,48.7058968 2.14990234,47.7319336 C3.05192508,46.7579704 4.35236781,46.2709961 6.05126953,46.2709961 C7.17464754,46.2709961 8.09049125,46.4605287 8.79882812,46.8395996 C9.507165,47.2186705 10.0467104,47.715329 10.4174805,48.3295898 L8.59960938,49.7407227 C8.33398305,49.3422832 8.0904959,49.0545256 7.86914063,48.8774414 C7.64778535,48.7003572 7.3959975,48.567546 7.11376953,48.4790039 C6.83154156,48.3904618 6.49397983,48.3461914 6.10107422,48.3461914 C5.16031431,48.3461914 4.44368736,48.6464 3.95117187,49.2468262 C3.45865639,49.8472524 3.21240234,50.8502534 3.21240234,52.2558594 C3.21240234,53.5673894 3.44343844,54.5468718 3.90551758,55.1943359 C4.36759671,55.8418001 5.10497541,56.1655273 6.11767578,56.1655273 C6.79834325,56.1655273 7.32820448,56.0354831 7.70727539,55.7753906 C8.0863463,55.5152982 8.43082527,55.1694358 8.74072266,54.737793 L10.5917969,56.0991211 Z M27.6001587,52.2558594 C27.6001587,54.2535907 27.1782065,55.7504833 26.3342896,56.746582 C25.4903726,57.7426808 24.2632527,58.2407227 22.6528931,58.2407227 C20.9539913,58.2407227 19.7047363,57.7163952 18.9050903,56.6677246 C18.1054444,55.619054 17.7056274,54.148447 17.7056274,52.2558594 C17.7056274,50.352204 18.1054444,48.8788301 18.9050903,47.8356934 C19.7047363,46.7925566 20.9539913,46.2709961 22.6528931,46.2709961 C24.3628626,46.2709961 25.6148845,46.7925566 26.4089966,47.8356934 C27.2031086,48.8788301 27.6001587,50.352204 27.6001587,52.2558594 L27.6001587,52.2558594 Z M25.1846313,52.2558594 C25.1846313,50.8945244 24.9923318,49.902591 24.6077271,49.2800293 C24.2231223,48.6574676 23.5715175,48.3461914 22.6528931,48.3461914 C21.7342687,48.3461914 21.0826639,48.6574676 20.6980591,49.2800293 C20.3134543,49.902591 20.1211548,50.8945244 20.1211548,52.2558594 C20.1211548,53.6171943 20.3162212,54.6091277 20.7063599,55.2316895 C21.0964985,55.8542512 21.7453364,56.1655273 22.6528931,56.1655273 C23.5715175,56.1655273 24.2231223,55.8542512 24.6077271,55.2316895 C24.9923318,54.6091277 25.1846313,53.6171943 25.1846313,52.2558594 L25.1846313,52.2558594 Z M37.8267822,48.6533203 L37.8267822,51.1352539 L42.0601807,51.1352539 L42.0601807,53.2021484 L37.8267822,53.2021484 L37.8267822,58 L35.4859619,58 L35.4859619,46.5117188 L42.8736572,46.5117188 L42.8736572,48.6533203 L37.8267822,48.6533203 Z M52.9176636,48.6533203 L52.9176636,51.1352539 L57.151062,51.1352539 L57.151062,53.2021484 L52.9176636,53.2021484 L52.9176636,58 L50.5768433,58 L50.5768433,46.5117188 L57.9645386,46.5117188 L57.9645386,48.6533203 L52.9176636,48.6533203 Z M65.6677246,58 L65.6677246,46.5117188 L73.130127,46.5117188 L73.130127,48.5786133 L68.0085449,48.5786133 L68.0085449,51.0273438 L72.3249512,51.0273438 L72.3249512,53.1025391 L68.0085449,53.1025391 L68.0085449,55.8583984 L73.130127,55.8583984 L73.130127,58 L65.6677246,58 Z M81.1321411,58 L81.1321411,46.5117188 L88.5945435,46.5117188 L88.5945435,48.5786133 L83.4729614,48.5786133 L83.4729614,51.0273438 L87.7893677,51.0273438 L87.7893677,53.1025391 L83.4729614,53.1025391 L83.4729614,55.8583984 L88.5945435,55.8583984 L88.5945435,58 L81.1321411,58 Z" id="COFFEE" fill="#FFFFFF" sketch:type="MSShapeGroup"></path>
                <path d="M71.0361328,24 L71.0361328,21.1435547 C73.4287229,19.1122945 75.162104,17.5864309 76.2363281,16.565918 C77.3105522,15.5454051 78.1992152,14.637211 78.9023438,13.8413086 C79.6054723,13.0454062 80.1499004,12.2690468 80.5356445,11.512207 C80.9213886,10.7553673 81.1142578,9.92773887 81.1142578,9.02929688 C81.1142578,8.02343247 80.7822299,7.21777646 80.1181641,6.61230469 C79.4540982,6.00683291 78.570318,5.70410156 77.4667969,5.70410156 C76.4218698,5.70410156 75.5698275,5.93359146 74.9106445,6.39257812 C74.2514615,6.85156479 73.6923851,7.45214473 73.2333984,8.19433594 L70.9775391,6.74414062 C71.6806676,5.53319707 72.5839789,4.65674099 73.6875,4.11474609 C74.7910211,3.5727512 76.0898363,3.30175781 77.5839844,3.30175781 C79.5468848,3.30175781 81.102045,3.7875928 82.2495117,4.75927734 C83.3969784,5.73096189 83.9707031,7.10545986 83.9707031,8.8828125 C83.9707031,9.78125449 83.8437513,10.6235312 83.5898438,11.409668 C83.3359362,12.1958047 82.937991,12.9453089 82.3959961,13.6582031 C81.8540012,14.3710973 81.1264694,15.1865188 80.2133789,16.1044922 C79.3002884,17.0224655 77.2617346,18.8339708 74.0976562,21.5390625 L84.6298828,21.5390625 L84.6298828,24 L71.0361328,24 Z" id="2" fill="#FF6666" sketch:type="MSShapeGroup"></path>
                <path d="M25.2539062,18.4775391 C25.2539062,20.4599708 24.8193403,21.9516552 23.9501953,22.9526367 C23.0810503,23.9536183 21.6162212,24.4541016 19.5556641,24.4541016 C18.9794893,24.4541016 18.3300817,24.3833015 17.6074219,24.2416992 C16.884762,24.1000969 16.264651,23.9218761 15.7470703,23.7070312 L16.7431641,21.3925781 C17.0556656,21.5488289 17.5048799,21.6977532 18.0908203,21.8393555 C18.6767607,21.9809577 19.1552716,22.0517578 19.5263672,22.0517578 C20.3173868,22.0517578 20.9277322,21.9150404 21.3574219,21.6416016 C21.7871115,21.3681627 22.0947256,20.9165071 22.2802734,20.2866211 C22.4658212,19.6567351 22.5585938,18.6826238 22.5585938,17.3642578 L22.5585938,3.7265625 L25.2539062,3.7265625 L25.2539062,18.4775391 Z M46.2529297,18.4482422 C46.2529297,20.3427829 45.6303773,21.8124948 44.3852539,22.8574219 C43.1401305,23.902349 41.321301,24.4248047 38.9287109,24.4248047 C37.1025299,24.4248047 35.5791077,24.1025423 34.3583984,23.4580078 C33.1376892,22.8134733 32.1416054,21.8125068 31.3701172,20.4550781 L33.5673828,18.9902344 C34.7099667,21.0117289 36.4775271,22.0224609 38.8701172,22.0224609 C40.3056712,22.0224609 41.436031,21.722171 42.2612305,21.121582 C43.0864299,20.5209931 43.4990234,19.6982474 43.4990234,18.6533203 C43.4990234,18.0576142 43.3671888,17.5546896 43.1035156,17.1445312 C42.8398424,16.7343729 42.4931662,16.3901381 42.0634766,16.1118164 C41.6337869,15.8334947 41.1406278,15.6088876 40.5839844,15.4379883 C40.027341,15.267089 39.4462921,15.1035164 38.8408203,14.9472656 C37.8447216,14.7031238 36.9169965,14.4516615 36.0576172,14.1928711 C35.1982379,13.9340807 34.4536164,13.5996114 33.8237305,13.1894531 C33.1938445,12.7792948 32.698244,12.2543977 32.3369141,11.6147461 C31.9755841,10.9750945 31.7949219,10.1523488 31.7949219,9.14648438 C31.7949219,7.34960039 32.3735294,5.92627478 33.5307617,4.87646484 C34.6879941,3.82665491 36.4189338,3.30175781 38.7236328,3.30175781 C40.5595795,3.30175781 42.0244086,3.64110989 43.1181641,4.31982422 C44.2119195,4.99853855 45.0761687,5.87011187 45.7109375,6.93457031 L43.5576172,8.45800781 C43.0302708,7.57909717 42.3881874,6.90039302 41.6313477,6.421875 C40.8745079,5.94335698 39.9052793,5.70410156 38.7236328,5.70410156 C37.4052668,5.70410156 36.3798865,5.994626 35.6474609,6.57568359 C34.9150354,7.15674119 34.5488281,7.93554199 34.5488281,8.91210938 C34.5488281,9.42969009 34.6586903,9.86425605 34.878418,10.2158203 C35.0981456,10.5673846 35.4130839,10.8627918 35.8232422,11.1020508 C36.2334005,11.3413098 36.7436493,11.5463859 37.3540039,11.7172852 C37.9643585,11.8881844 38.6601523,12.0712881 39.4414062,12.2666016 C40.3593796,12.5107434 41.2333943,12.7670885 42.0634766,13.0356445 C42.8935588,13.3042006 43.6186492,13.6582009 44.2387695,14.0976562 C44.8588898,14.5371116 45.3496076,15.1035122 45.7109375,15.796875 C46.0722674,16.4902378 46.2529297,17.3740181 46.2529297,18.4482422 L46.2529297,18.4482422 Z" id="JS" fill="#FFFFFF" sketch:type="MSShapeGroup"></path>
            </g>
        </g>
    </g>
</svg>