<?xml version="1.0" encoding="UTF-8" standalone="no"?>
<svg width="77px" height="60px" viewBox="0 0 77 60" version="1.1" xmlns="http://www.w3.org/2000/svg" xmlns:xlink="http://www.w3.org/1999/xlink" xmlns:sketch="http://www.bohemiancoding.com/sketch/ns">
    <!-- Generator: Sketch 3.2.2 (9983) - http://www.bohemiancoding.com/sketch -->
    <title>logo study</title>
    <desc>Created with Sketch.</desc>
    <defs></defs>
    <g id="Page-1" stroke="none" stroke-width="1" fill="none" fill-rule="evenodd" sketch:type="MSPage">
        <g id="logo-study" sketch:type="MSArtboardGroup">
            <g id="Group" sketch:type="MSLayerGroup">
                <path d="M63.8214069,12 L75,24.0395476 L63.8948458,36" id="Path-33" stroke="#FF6666" stroke-width="3" stroke-linejoin="round" sketch:type="MSShapeGroup"></path>
                <path d="M61.0800171,28.0935667 L47.5,28.0935667" id="Line" stroke="#FF6666" stroke-width="3" stroke-linecap="square" stroke-linejoin="round" sketch:type="MSShapeGroup"></path>
                <path d="M61.7531204,20 L50.6790802,20 C47.4298533,20 46.7485969,18.2283301 49.1507063,16.0489841 L55.5790685,10.2167661 C55.5790685,10.2167661 59.2024884,5.50632009 55.5790685,2.17146816 C51.9556485,-1.16338377 47.8828606,2.17146818 47.8828606,2.17146818" id="Path-35" stroke="#FFC4C4" stroke-width="3" stroke-linecap="square" stroke-linejoin="round" sketch:type="MSShapeGroup"></path>
                <path d="M11.52,9.32 L11.52,27.44 C11.52,28.56 11.48,29.84 10.72,30.6 C10.28,31.04 9.8,31.16 9.28,31.16 C8.68,31.16 8.2,31 7.76,30.56 C7.44,30.24 7.04,29.56 6.8,29.08 L2.96,33.4 C3.64,34.24 4.64,35.12 5.48,35.64 C6.88,36.48 8.28,36.6 9.72,36.6 C11.44,36.6 13.6,36.36 15.36,34.6 C17.56,32.44 17.68,29.48 17.68,27.48 L17.68,9.32 L11.52,9.32 Z M40.04,11.36 C36.92,9.04 33.96,8.72 32.12,8.72 C29.64,8.72 27.4,9.24 25.52,11.16 C23.92,12.8 23.2,14.8 23.2,17.16 C23.2,18.44 23.4,20.32 24.8,21.8 C25.84,22.92 27.28,23.48 28.52,23.92 L30.72,24.68 C31.48,24.96 33.12,25.56 33.84,26.16 C34.4,26.64 34.76,27.2 34.76,28.08 C34.76,29.08 34.32,29.8 33.8,30.24 C32.92,31 31.8,31.16 31,31.16 C29.76,31.16 28.68,30.84 27.64,30.2 C26.92,29.76 25.84,28.84 25.16,28.16 L21.96,32.56 C22.96,33.56 24.52,34.8 25.88,35.48 C27.56,36.32 29.24,36.6 31.16,36.6 C32.92,36.6 36.36,36.36 38.72,33.88 C40.12,32.44 41.08,30.04 41.08,27.28 C41.08,25.72 40.68,23.8 39.12,22.32 C38.08,21.32 36.64,20.72 35.48,20.28 L33.48,19.52 C31.68,18.84 30.76,18.6 30.12,18 C29.72,17.64 29.52,17.16 29.52,16.52 C29.52,15.84 29.8,15.24 30.2,14.84 C30.92,14.04 31.96,13.92 32.8,13.92 C33.56,13.92 35.28,14.04 37.28,15.84 L40.04,11.36 Z" id="JS" fill="#FFFFFF" sketch:type="MSShapeGroup"></path>
                <path d="M9.435,51.634 C8.432,52.62 7.514,52.807 6.834,52.807 C5.44,52.807 4.624,52.093 4.386,51.855 C3.876,51.362 3.4,50.529 3.4,49.356 C3.4,48.268 3.842,47.35 4.471,46.738 C5.066,46.16 5.831,45.854 6.783,45.854 C7.99,45.854 8.857,46.449 9.435,47.061 L9.435,44.035 C8.33,43.559 7.463,43.406 6.715,43.406 C4.947,43.406 3.485,44.069 2.482,45.038 C1.462,46.024 0.714,47.52 0.714,49.305 C0.714,51.124 1.462,52.62 2.482,53.606 C3.434,54.541 4.845,55.255 6.936,55.255 C7.616,55.255 8.432,55.153 9.435,54.643 L9.435,51.634 Z M20.5870001,43.406 C18.3260001,43.406 16.9150001,44.307 16.1500001,45.072 C15.1300001,46.092 14.3990001,47.741 14.3990001,49.373 C14.3990001,51.039 15.0790001,52.569 16.1670001,53.589 C17.0170001,54.405 18.4620001,55.255 20.5870001,55.255 C22.4910001,55.255 23.9190001,54.609 24.9730001,53.589 C26.1970001,52.399 26.7410001,50.852 26.7410001,49.339 C26.7410001,47.588 26.0440001,46.092 24.9730001,45.055 C23.8340001,43.95 22.3550001,43.406 20.5870001,43.406 L20.5870001,43.406 Z M20.5700001,45.82 C21.6070001,45.82 22.5080001,46.245 23.0690001,46.789 C23.5790001,47.299 24.0550001,48.166 24.0550001,49.339 C24.0550001,50.648 23.5110001,51.447 23.0690001,51.872 C22.5250001,52.416 21.7090001,52.841 20.5530001,52.841 C19.6690001,52.841 18.8530001,52.603 18.1220001,51.906 C17.4250001,51.226 17.0850001,50.393 17.0850001,49.356 C17.0850001,48.098 17.5950001,47.265 18.0880001,46.789 C18.7000001,46.177 19.5840001,45.82 20.5700001,45.82 L20.5700001,45.82 Z M38.3860002,43.661 L32.0960002,43.661 L32.0960002,55 L34.7140002,55 L34.7140002,50.274 L38.1140002,50.274 L38.1140002,48.064 L34.7140002,48.064 L34.7140002,45.871 L38.3860002,45.871 L38.3860002,43.661 Z M49.9970003,43.661 L43.7070003,43.661 L43.7070003,55 L46.3250003,55 L46.3250003,50.274 L49.7250003,50.274 L49.7250003,48.064 L46.3250003,48.064 L46.3250003,45.871 L49.9970003,45.871 L49.9970003,43.661 Z M61.7270004,43.661 L55.3180004,43.661 L55.3180004,55 L61.7270004,55 L61.7270004,52.79 L57.9360004,52.79 L57.9360004,50.274 L61.5400004,50.274 L61.5400004,48.064 L57.9360004,48.064 L57.9360004,45.871 L61.7270004,45.871 L61.7270004,43.661 Z M73.6610005,43.661 L67.2520005,43.661 L67.2520005,55 L73.6610005,55 L73.6610005,52.79 L69.8700005,52.79 L69.8700005,50.274 L73.4740005,50.274 L73.4740005,48.064 L69.8700005,48.064 L69.8700005,45.871 L73.6610005,45.871 L73.6610005,43.661 Z" id="COFFEE" fill="#FFFFFF" sketch:type="MSShapeGroup"></path>
            </g>
        </g>
    </g>
</svg>