<?xml version="1.0" encoding="UTF-8" standalone="no"?>
<svg width="103px" height="26px" viewBox="0 0 103 26" version="1.1" xmlns="http://www.w3.org/2000/svg" xmlns:xlink="http://www.w3.org/1999/xlink" xmlns:sketch="http://www.bohemiancoding.com/sketch/ns">
    <!-- Generator: Sketch 3.2.2 (9983) - http://www.bohemiancoding.com/sketch -->
    <title>logo study</title>
    <desc>Created with Sketch.</desc>
    <defs></defs>
    <g id="Page-1" stroke="none" stroke-width="1" fill="none" fill-rule="evenodd" sketch:type="MSPage">
        <g id="logo-study" sketch:type="MSArtboardGroup">
            <path d="M62.055,13.857 C62.055,12.66 61.593,11.316 60.648,10.371 C59.808,9.531 58.38,8.859 56.553,8.859 C54.726,8.859 53.298,9.531 52.458,10.371 C51.513,11.316 51.051,12.66 51.051,13.857 C51.051,15.054 51.513,16.398 52.458,17.343 C53.298,18.183 54.726,18.855 56.553,18.855 C58.38,18.855 59.808,18.183 60.648,17.343 C61.593,16.398 62.055,15.054 62.055,13.857 L62.055,13.857 Z M56.553,11.421 C57.246,11.421 57.813,11.652 58.254,12.093 C58.695,12.534 58.947,13.101 58.947,13.857 C58.947,14.613 58.695,15.18 58.254,15.621 C57.813,16.062 57.246,16.293 56.574,16.293 C55.776,16.293 55.23,15.999 54.852,15.621 C54.495,15.264 54.159,14.718 54.159,13.857 C54.159,13.101 54.411,12.534 54.852,12.093 C55.293,11.652 55.86,11.421 56.553,11.421 L56.553,11.421 Z M69.615,11.61 L69.615,9.174 L67.221,9.174 L67.221,7.599 C67.221,7.158 67.221,6.423 67.557,5.982 C67.683,5.814 67.977,5.604 68.439,5.604 C68.817,5.604 69.258,5.751 69.594,5.961 L69.594,3.315 C69.09,3.126 68.544,3 67.872,3 C66.717,3 65.856,3.42 65.247,4.071 C64.302,5.079 64.197,6.276 64.197,7.326 L64.197,9.174 L63.105,9.174 L63.105,11.61 L64.197,11.61 L64.197,18.54 L67.221,18.54 L67.221,11.61 L69.615,11.61 Z M76.461,11.61 L76.461,9.174 L74.067,9.174 L74.067,7.599 C74.067,7.158 74.067,6.423 74.403,5.982 C74.529,5.814 74.823,5.604 75.285,5.604 C75.663,5.604 76.104,5.751 76.44,5.961 L76.44,3.315 C75.936,3.126 75.39,3 74.718,3 C73.563,3 72.702,3.42 72.093,4.071 C71.148,5.079 71.043,6.276 71.043,7.326 L71.043,9.174 L69.951,9.174 L69.951,11.61 L71.043,11.61 L71.043,18.54 L74.067,18.54 L74.067,11.61 L76.461,11.61 Z M80.346,12.576 C80.43,12.156 80.64,11.82 80.871,11.568 C81.165,11.274 81.627,10.959 82.404,10.959 C83.013,10.959 83.496,11.169 83.832,11.484 C84.273,11.904 84.42,12.492 84.441,12.576 L80.346,12.576 Z M87.234,14.067 C87.234,12.912 87.024,11.442 85.911,10.266 C84.756,9.048 83.244,8.859 82.194,8.859 C81.144,8.859 79.737,9.069 78.603,10.203 C77.658,11.169 77.175,12.555 77.175,13.899 C77.175,15.453 77.763,16.692 78.582,17.511 C79.674,18.603 80.913,18.855 82.32,18.855 C83.37,18.855 84.378,18.708 85.281,18.162 C85.827,17.826 86.667,17.133 87.087,15.81 L84.231,15.516 C83.979,16.041 83.622,16.272 83.58,16.293 C83.265,16.482 82.803,16.566 82.362,16.566 C81.9,16.566 81.27,16.482 80.808,15.978 C80.43,15.558 80.241,14.886 80.241,14.382 L87.234,14.382 L87.234,14.067 Z M91.833,12.576 C91.917,12.156 92.127,11.82 92.358,11.568 C92.652,11.274 93.114,10.959 93.891,10.959 C94.5,10.959 94.983,11.169 95.319,11.484 C95.76,11.904 95.907,12.492 95.928,12.576 L91.833,12.576 Z M98.721,14.067 C98.721,12.912 98.511,11.442 97.398,10.266 C96.243,9.048 94.731,8.859 93.681,8.859 C92.631,8.859 91.224,9.069 90.09,10.203 C89.145,11.169 88.662,12.555 88.662,13.899 C88.662,15.453 89.25,16.692 90.069,17.511 C91.161,18.603 92.4,18.855 93.807,18.855 C94.857,18.855 95.865,18.708 96.768,18.162 C97.314,17.826 98.154,17.133 98.574,15.81 L95.718,15.516 C95.466,16.041 95.109,16.272 95.067,16.293 C94.752,16.482 94.29,16.566 93.849,16.566 C93.387,16.566 92.757,16.482 92.295,15.978 C91.917,15.558 91.728,14.886 91.728,14.382 L98.721,14.382 L98.721,14.067 Z" id="coffee" fill="#292929" sketch:type="MSShapeGroup"></path>
            <path d="M42.6524504,11.3387419 C42.9038669,10.8937068 43.2132626,10.5065118 43.554,10.182 C44.604,9.195 45.843,8.859 47.124,8.859 C47.943,8.859 48.699,9.006 49.497,9.384 L49.497,12.135 C48.762,11.526 48.006,11.421 47.523,11.421 C46.578,11.421 46.011,11.883 45.801,12.093 C45.4129743,12.4810257 45.124252,13.0676585 45.1086633,13.7949549 L42.6524504,11.3387419 Z M44.898327,18.4153815 C45.5298537,18.6935732 46.2626179,18.855 47.103,18.855 C47.943,18.855 48.699,18.729 49.497,18.288 L49.497,15.558 C48.804,16.146 48.09,16.293 47.565,16.293 C47.3989677,16.293 47.2316535,16.2776168 47.0668581,16.2468504 L44.898327,18.4153815 Z" id="Path" fill="#292929" sketch:type="MSShapeGroup"></path>
            <path d="M35.5111621,8.45005852 L43.2388379,16.2032019 L35.5619299,23.9054102" id="Path-33" stroke="#FF6666" stroke-width="2" stroke-linejoin="round" sketch:type="MSShapeGroup"></path>
            <path d="M38.0664319,14 L32.6233111,14" id="Line-2" stroke="#FF6666" stroke-width="2" stroke-linejoin="round" sketch:type="MSShapeGroup"></path>
            <path d="M24.0315984,19.1621252 L24.0315984,17.2978212 C24.8900251,16.5763214 25.672077,15.8864305 26.3777776,15.2281278 C27.0834781,14.5698251 27.6285446,14.023442 28.0129933,13.5889622 C28.3974421,13.1544824 28.6963071,12.7384413 28.9095972,12.3408265 C29.1228873,11.9432116 29.2295307,11.525854 29.2295307,11.0887409 C29.2295307,10.7464235 29.1005053,10.4752069 28.8424506,10.2750828 C28.584396,10.0749588 28.2289178,9.9748983 27.7760056,9.9748983 C27.2862283,9.9748983 26.8859863,10.0881247 26.5752674,10.3145808 C26.2645485,10.5410369 26.0064977,10.8096204 25.8011073,11.1203393 L24,9.8564044 C24.4476459,9.18756883 24.9782299,8.71096481 25.591768,8.42657803 C26.2053062,8.14219126 26.9702425,8 27.8865999,8 C29.0136141,8 29.9023095,8.26331714 30.5527126,8.78995932 C31.2031157,9.3166015 31.5283123,10.0565227 31.5283123,11.009745 C31.5283123,11.7101791 31.4006035,12.3250246 31.1451821,12.8543 C30.8897606,13.3835754 30.5263829,13.8970438 30.0550382,14.3947207 C29.5836934,14.8923976 28.9964962,15.4414138 28.2934289,16.0417859 C27.5903616,16.642158 27.1572049,17.0029025 26.9939458,17.1240302 L37.883794,17.1240302 L37.883794,19.1621252 L24.0315984,19.1621252 Z" id="2" fill="#FF6666" sketch:type="MSShapeGroup"></path>
            <path d="M11.2255859,15.5996094 C11.2255859,16.8115295 10.9198436,17.6789525 10.3083496,18.2019043 C9.69685567,18.7248561 8.73812502,18.9863281 7.43212891,18.9863281 C7.14990093,18.9863281 6.75700122,18.9448246 6.25341797,18.8618164 C5.74983472,18.7788082 5.33203291,18.6708991 5,18.5380859 L5.71386719,16.4545898 C5.89095141,16.5486658 6.1745586,16.6482742 6.56469727,16.753418 C6.95483594,16.8585617 7.26057832,16.9111328 7.48193359,16.9111328 C7.89144085,16.9111328 8.18749909,16.8557948 8.37011719,16.7451172 C8.55273529,16.6344396 8.68277956,16.4407566 8.76025391,16.1640625 C8.83772825,15.8873684 8.87646484,15.4889349 8.87646484,14.96875 L8.87646484,7.24072266 L11.2255859,7.24072266 L11.2255859,15.5996094 Z M22.5945075,15.4003906 C22.5945075,16.551438 22.2168257,17.434079 21.4614508,18.0483398 C20.7060759,18.6626007 19.5923989,18.9697266 18.1203864,18.9697266 C17.1021521,18.9697266 16.2181277,18.8009457 15.4682868,18.4633789 C14.7184458,18.1258121 14.1083444,17.5807329 13.6379645,16.828125 L15.439234,15.4501953 C15.7048603,15.8264993 15.9566482,16.108723 16.1946051,16.296875 C16.432562,16.485027 16.7147858,16.6316727 17.0412848,16.7368164 C17.3677838,16.8419602 17.7440821,16.8945312 18.170191,16.8945312 C18.8065875,16.8945312 19.3032459,16.7852387 19.6601813,16.5666504 C20.0171167,16.3480621 20.1955817,16.0146507 20.1955817,15.5664062 C20.1955817,15.3118477 20.1333264,15.0987964 20.0088141,14.9272461 C19.8843018,14.7556958 19.697536,14.6076666 19.4485114,14.4831543 C19.1994867,14.358642 18.7678504,14.2161466 18.1535895,14.0556641 C17.5559302,13.8951815 16.9928662,13.7333179 16.4643805,13.5700684 C15.9358948,13.4068188 15.4793564,13.195151 15.0947516,12.9350586 C14.7101468,12.6749661 14.4071713,12.348472 14.185816,11.9555664 C13.9644608,11.5626608 13.8537848,11.0673858 13.8537848,10.4697266 C13.8537848,9.37955184 14.2217824,8.52873027 14.9577887,7.91723633 C15.693795,7.30574239 16.7479837,7 18.1203864,7 C20.1070499,7 21.5126348,7.68065726 22.3371832,9.04199219 L20.5525153,10.4365234 C20.237084,9.94954184 19.8829209,9.60091251 19.4900153,9.390625 C19.0971097,9.18033749 18.6295037,9.07519531 18.0871832,9.07519531 C17.5448628,9.07519531 17.1035424,9.17342024 16.7632086,9.36987305 C16.4228749,9.56632585 16.2527106,9.87483514 16.2527106,10.2954102 C16.2527106,10.6661802 16.4297921,10.9497874 16.7839606,11.1462402 C17.138129,11.342693 17.7551476,11.5405263 18.6350348,11.7397461 C19.1220164,11.8670254 19.6034569,12.0039869 20.0793707,12.1506348 C20.5552846,12.2972826 20.9800036,12.5006497 21.3535407,12.7607422 C21.7270777,13.0208346 22.0272863,13.3611633 22.2541754,13.7817383 C22.4810646,14.2023133 22.5945075,14.7418587 22.5945075,15.4003906 L22.5945075,15.4003906 Z" id="JS" fill="#292929" sketch:type="MSShapeGroup"></path>
        </g>
    </g>
</svg>