<?xml version="1.0" encoding="UTF-8" standalone="no"?>
<svg width="91px" height="60px" viewBox="0 0 91 60" version="1.1" xmlns="http://www.w3.org/2000/svg" xmlns:xlink="http://www.w3.org/1999/xlink" xmlns:sketch="http://www.bohemiancoding.com/sketch/ns">
    <!-- Generator: Sketch 3.2.2 (9983) - http://www.bohemiancoding.com/sketch -->
    <title>t</title>
    <desc>Created with Sketch.</desc>
    <defs></defs>
    <g id="Page-1" stroke="none" stroke-width="1" fill="none" fill-rule="evenodd" sketch:type="MSPage">
        <g id="t" sketch:type="MSArtboardGroup">
            <g id="Group" sketch:type="MSLayerGroup">
                <path d="M68,0.807692308 L68,24.1923077" id="Line" stroke="#FFFFFF" stroke-width="2" opacity="0.117245802" sketch:type="MSShapeGroup"></path>
                <path d="M0,34 L94,34" id="Line-3" stroke="#FFFFFF" stroke-width="2" opacity="0.117245802" sketch:type="MSShapeGroup"></path>
                <path d="M24,0.807692308 L24,24.1923077" id="Line-2" stroke="#FFFFFF" stroke-width="2" opacity="0.117245802" sketch:type="MSShapeGroup"></path>
                <path d="M10.5449219,16.3979492 C10.5449219,18.0499757 10.1827836,19.293046 9.45849609,20.1271973 C8.73420862,20.9613486 7.5135177,21.378418 5.79638672,21.378418 C5.31624109,21.378418 4.77506812,21.3194179 4.17285156,21.201416 C3.57063501,21.0834141 3.05387585,20.9348967 2.62255859,20.7558594 L3.45263672,18.8271484 C3.71305469,18.9573574 4.0873999,19.081461 4.57568359,19.1994629 C5.06396729,19.3174648 5.46272632,19.3764648 5.77197266,19.3764648 C6.43115564,19.3764648 6.93977686,19.2625337 7.29785156,19.034668 C7.65592627,18.8068022 7.91227136,18.4304225 8.06689453,17.9055176 C8.2215177,17.3806126 8.29882812,16.5688531 8.29882812,15.4702148 L8.29882812,4.10546875 L10.5449219,4.10546875 L10.5449219,16.3979492 Z M52.3774414,16.3735352 C52.3774414,17.9523191 51.8586478,19.177079 50.8210449,20.0478516 C49.7834421,20.9186241 48.2677509,21.3540039 46.2739258,21.3540039 C44.7521083,21.3540039 43.4825897,21.0854519 42.465332,20.5483398 C41.4480743,20.0112278 40.6180045,19.177089 39.9750977,18.0458984 L41.8061523,16.8251953 C42.7583055,18.509774 44.2312726,19.3520508 46.2250977,19.3520508 C47.4213927,19.3520508 48.3633592,19.1018091 49.0510254,18.6013184 C49.7386916,18.1008276 50.0825195,17.4152062 50.0825195,16.5444336 C50.0825195,16.0480118 49.9726573,15.628908 49.7529297,15.2871094 C49.533202,14.9453108 49.2443052,14.6584484 48.8862305,14.4265137 C48.5281558,14.1945789 48.1171898,14.0074063 47.6533203,13.8649902 C47.1894508,13.7225742 46.7052434,13.5862637 46.2006836,13.4560547 C45.3706013,13.2526031 44.5974971,13.0430512 43.8813477,12.8273926 C43.1651982,12.6117339 42.5446804,12.3330095 42.0197754,11.9912109 C41.4948704,11.6494124 41.08187,11.2119981 40.7807617,10.6789551 C40.4796534,10.145912 40.3291016,9.46029065 40.3291016,8.62207031 C40.3291016,7.12466699 40.8112745,5.93856232 41.7756348,5.0637207 C42.7399951,4.18887909 44.1824448,3.75146484 46.1030273,3.75146484 C47.6329829,3.75146484 48.8536738,4.03425824 49.7651367,4.59985352 C50.6765996,5.16544879 51.3968073,5.89175989 51.9257812,6.77880859 L50.1313477,8.04833984 C49.6918923,7.31591431 49.1568228,6.75032751 48.526123,6.3515625 C47.8954233,5.95279749 47.0877328,5.75341797 46.1030273,5.75341797 C45.004389,5.75341797 44.1499054,5.99552167 43.5395508,6.47973633 C42.9291962,6.96395099 42.6240234,7.61295166 42.6240234,8.42675781 C42.6240234,8.85807507 42.7155753,9.22021338 42.8986816,9.51318359 C43.081788,9.80615381 43.3442366,10.0523265 43.6860352,10.251709 C44.0278337,10.4510915 44.4530411,10.6219882 44.9616699,10.7644043 C45.4702988,10.9068204 46.050127,11.0594067 46.7011719,11.222168 C47.4661497,11.4256195 48.1944952,11.6392404 48.8862305,11.8630371 C49.5779657,12.0868338 50.1822077,12.3818341 50.6989746,12.7480469 C51.2157415,13.1142596 51.624673,13.5862601 51.9257812,14.1640625 C52.2268895,14.7418649 52.3774414,15.4783484 52.3774414,16.3735352 L52.3774414,16.3735352 Z M81.4780273,21 L81.4780273,18.6196289 C83.4718524,16.9269121 84.9163367,15.6553591 85.8115234,14.8049316 C86.7067102,13.9545042 87.4472627,13.1976758 88.0332031,12.5344238 C88.6191436,11.8711718 89.0728337,11.2242056 89.3942871,10.5935059 C89.7157405,9.96280609 89.8764648,9.27311572 89.8764648,8.52441406 C89.8764648,7.68619373 89.5997749,7.01481372 89.0463867,6.51025391 C88.4929985,6.00569409 87.756515,5.75341797 86.8369141,5.75341797 C85.9661415,5.75341797 85.2561063,5.94465955 84.7067871,6.32714844 C84.157468,6.70963733 83.6915709,7.21012061 83.309082,7.82861328 L81.4291992,6.62011719 C82.0151396,5.61099756 82.767899,4.88061749 83.6875,4.42895508 C84.607101,3.97729266 85.6894469,3.75146484 86.9345703,3.75146484 C88.5703207,3.75146484 89.8662875,4.15632733 90.8225098,4.96606445 C91.778732,5.77580157 92.2568359,6.92121655 92.2568359,8.40234375 C92.2568359,9.15104541 92.1510427,9.85294269 91.9394531,10.5080566 C91.7278635,11.1631706 91.3962425,11.7877574 90.9445801,12.3818359 C90.4929177,12.9759144 89.8866412,13.6554324 89.1257324,14.4204102 C88.3648237,15.1853879 86.6660288,16.6949757 84.0292969,18.9492188 L92.8061523,18.9492188 L92.8061523,21 L81.4780273,21 Z" id="JS2" fill="#FFFFFF" sketch:type="MSShapeGroup"></path>
                <path d="M10.7148438,58.4873047 C10.1933568,59.2666055 9.55322645,59.8393536 8.79443359,60.2055664 C8.03564074,60.5717792 7.1025446,60.7548828 5.99511719,60.7548828 C2.22752022,60.7548828 0.34375,58.6425992 0.34375,54.4179688 C0.34375,52.2558486 0.821284287,50.6591848 1.77636719,49.6279297 C2.73145009,48.5966745 4.10838944,48.0810547 5.90722656,48.0810547 C7.09668563,48.0810547 8.0664025,48.2817363 8.81640625,48.6831055 C9.56641,49.0844747 10.1376933,49.6103483 10.5302734,50.2607422 L8.60546875,51.7548828 C8.32421734,51.3330057 8.06640742,51.0283213 7.83203125,50.8408203 C7.59765508,50.6533194 7.33105618,50.5126958 7.03222656,50.4189453 C6.73339694,50.3251948 6.37597864,50.2783203 5.95996094,50.2783203 C4.96386221,50.2783203 4.20508073,50.5961882 3.68359375,51.2319336 C3.16210677,51.867679 2.90136719,52.9296801 2.90136719,54.4179688 C2.90136719,55.8066476 3.14599365,56.8437466 3.63525391,57.5292969 C4.12451417,58.2148472 4.90526808,58.5576172 5.97753906,58.5576172 C6.69824579,58.5576172 7.25927534,58.4199233 7.66064453,58.1445312 C8.06201373,57.8691392 8.42675617,57.502932 8.75488281,57.0458984 L10.7148438,58.4873047 Z M28.7236972,54.4179688 C28.7236972,56.5332137 28.2769243,58.1181588 27.3833652,59.1728516 C26.489806,60.2275443 25.1905026,60.7548828 23.4854159,60.7548828 C21.6865788,60.7548828 20.3638381,60.1997126 19.5171542,59.0893555 C18.6704703,57.9789984 18.2471347,56.421885 18.2471347,54.4179688 C18.2471347,52.4023337 18.6704703,50.8422907 19.5171542,49.737793 C20.3638381,48.6332953 21.6865788,48.0810547 23.4854159,48.0810547 C25.2959719,48.0810547 26.6216422,48.6332953 27.4624667,49.737793 C28.3032912,50.8422907 28.7236972,52.4023337 28.7236972,54.4179688 L28.7236972,54.4179688 Z M26.16608,54.4179688 C26.16608,52.9765553 25.9624688,51.9262728 25.5552402,51.2670898 C25.1480116,50.6079069 24.458077,50.2783203 23.4854159,50.2783203 C22.5127548,50.2783203 21.8228203,50.6079069 21.4155917,51.2670898 C21.0083631,51.9262728 20.8047519,52.9765553 20.8047519,54.4179688 C20.8047519,55.8593822 21.0112928,56.9096647 21.4243808,57.5688477 C21.8374688,58.2280306 22.5244736,58.5576172 23.4854159,58.5576172 C24.458077,58.5576172 25.1480116,58.2280306 25.5552402,57.5688477 C25.9624688,56.9096647 26.16608,55.8593822 26.16608,54.4179688 L26.16608,54.4179688 Z M39.5518866,50.6035156 L39.5518866,53.2314453 L44.0343084,53.2314453 L44.0343084,55.4199219 L39.5518866,55.4199219 L39.5518866,60.5 L37.0733709,60.5 L37.0733709,48.3359375 L44.8956366,48.3359375 L44.8956366,50.6035156 L39.5518866,50.6035156 Z M55.5304666,50.6035156 L55.5304666,53.2314453 L60.0128884,53.2314453 L60.0128884,55.4199219 L55.5304666,55.4199219 L55.5304666,60.5 L53.0519509,60.5 L53.0519509,48.3359375 L60.8742166,48.3359375 L60.8742166,50.6035156 L55.5304666,50.6035156 Z M69.0305309,60.5 L69.0305309,48.3359375 L76.9318981,48.3359375 L76.9318981,50.5244141 L71.5090466,50.5244141 L71.5090466,53.1171875 L76.0793591,53.1171875 L76.0793591,55.3144531 L71.5090466,55.3144531 L71.5090466,58.2324219 L76.9318981,58.2324219 L76.9318981,60.5 L69.0305309,60.5 Z M85.4046187,60.5 L85.4046187,48.3359375 L93.3059859,48.3359375 L93.3059859,50.5244141 L87.8831344,50.5244141 L87.8831344,53.1171875 L92.4534469,53.1171875 L92.4534469,55.3144531 L87.8831344,55.3144531 L87.8831344,58.2324219 L93.3059859,58.2324219 L93.3059859,60.5 L85.4046187,60.5 Z" id="COFFEE" fill="#FFFFFF" sketch:type="MSShapeGroup"></path>
            </g>
        </g>
    </g>
</svg>